HIERARCHY
ROOT Hips
{
  OFFSET 46.3309 91.8302 -14.4133
  CHANNELS 6 Xposition Yposition Zposition Zrotation Xrotation Yrotation
  JOINT Chest
  {
    OFFSET 1.23234e-007 14.8421 1.27321e-009
    CHANNELS 6 Xposition Yposition Zposition Zrotation Xrotation Yrotation
    JOINT Neck
    {
      OFFSET 0.51659 29.8236 6.51843
      CHANNELS 6 Xposition Yposition Zposition Zrotation Xrotation Yrotation
      JOINT Head
      {
        OFFSET 1.16803e-007 7.47049 6.44171e-007
        CHANNELS 6 Xposition Yposition Zposition Zrotation Xrotation Yrotation
        End Site
        {
          OFFSET -4.32676e-008 16.2908 2.16786e-007
        }
      }
    }
    JOINT LeftCollar
    {
      OFFSET 6.64893 27.3161 3.27471
      CHANNELS 6 Xposition Yposition Zposition Zrotation Xrotation Yrotation
      JOINT LeftUpArm
      {
        OFFSET 10.8584 2.41798 -0.945791
        CHANNELS 6 Xposition Yposition Zposition Zrotation Xrotation Yrotation
        JOINT LeftLowArm
        {
          OFFSET 3.77631 -24.5904 -1.70468
          CHANNELS 6 Xposition Yposition Zposition Zrotation Xrotation Yrotation
          JOINT LeftHand
          {
            OFFSET 1.01026 -21.1231 1.74131
            CHANNELS 6 Xposition Yposition Zposition Zrotation Xrotation Yrotation
            End Site
            {
              OFFSET 1.17583e-006 -9.81266 -2.89439e-008
            }
          }
        }
      }
    }
    JOINT RightCollar
    {
      OFFSET -6.11406 27.2248 4.23427
      CHANNELS 6 Xposition Yposition Zposition Zrotation Xrotation Yrotation
      JOINT RightUpArm
      {
        OFFSET -10.4566 2.3285 -0.910794
        CHANNELS 6 Xposition Yposition Zposition Zrotation Xrotation Yrotation
        JOINT RightLowArm
        {
          OFFSET -3.86856 -25.191 -1.74633
          CHANNELS 6 Xposition Yposition Zposition Zrotation Xrotation Yrotation
          JOINT RightHand
          {
            OFFSET -1.04759 -20.6242 1.75213
            CHANNELS 6 Xposition Yposition Zposition Zrotation Xrotation Yrotation
            End Site
            {
              OFFSET -2.03487e-006 -9.50367 -4.31372e-006
            }
          }
        }
      }
    }
  }
  JOINT LeftUpLeg
  {
    OFFSET 9 -3.38008e-006 -5.22994e-009
    CHANNELS 6 Xposition Yposition Zposition Zrotation Xrotation Yrotation
    JOINT LeftLowLeg
    {
      OFFSET -0.575 -51.431 3.90177
      CHANNELS 6 Xposition Yposition Zposition Zrotation Xrotation Yrotation
      JOINT LeftFoot
      {
        OFFSET 2.13082e-007 -43.5882 -3.90177
        CHANNELS 6 Xposition Yposition Zposition Zrotation Xrotation Yrotation
        End Site
        {
          OFFSET 7.44796e-007 -6.93413 15.0046
        }
      }
    }
  }
  JOINT RightUpLeg
  {
    OFFSET -9 6.86154e-007 -3.19539e-009
    CHANNELS 6 Xposition Yposition Zposition Zrotation Xrotation Yrotation
    JOINT RightLowLeg
    {
      OFFSET 0.575 -51.4311 3.90177
      CHANNELS 6 Xposition Yposition Zposition Zrotation Xrotation Yrotation
      JOINT RightFoot
      {
        OFFSET -7.46079e-007 -43.5882 -3.90177
        CHANNELS 6 Xposition Yposition Zposition Zrotation Xrotation Yrotation
        End Site
        {
          OFFSET 4.66716e-007 -6.93413 15.0046
        }
      }
    }
  }
}
MOTION
Frames:	10
Frame Time:	0.0333333
46.3309 91.8302 -14.4133 0.0404596 -8.64697 0.0533651 1.23234e-007 14.8421 1.27321e-009 0.0277641 4.88343 -1.81622 0.51659 29.8236 6.51843 -3.03293 -3.34361 0.213321 1.16803e-007 7.47049 6.44171e-007 0.743664 17.4155 -0.515585 6.64893 27.3161 3.27471 -2.94784 5.93879 -4.20517 10.8584 2.41798 -0.945791 27.4328 -64.9414 -28.8495 3.77631 -24.5904 -1.70468 7.44265 -6.51544 -29.2005 1.01026 -21.1231 1.74131 20.6094 -3.03542 2.58008 -6.11406 27.2248 4.23427 -1.96452 7.32629 3.42623 -10.4566 2.3285 -0.910794 -42.3231 -60.4408 6.31138 -3.86856 -25.191 -1.74633 0.735326 -22.1734 69.6673 -1.04759 -20.6242 1.75213 -6.63894 5.46927 -0.689665 9 -3.38008e-006 -5.22994e-009 9.72089 -11.1011 10.6805 -0.575 -51.431 3.90177 -1.90154 45.1371 -26.6204 2.13082e-007 -43.5882 -3.90177 19.441 -15.1627 0.592049 -9 6.86154e-007 -3.19539e-009 -16.3828 -11.0849 -18.2705 0.575 -51.4311 3.90177 -9.00755 41.5965 17.0132 -7.46079e-007 -43.5882 -3.90177 -9.58489 -14.5952 -0.157685 
46.3177 91.8209 -14.4244 0.0342841 -8.61574 0.106297 1.23234e-007 14.8421 1.27321e-009 0.00355787 4.81835 -1.86368 0.51659 29.8236 6.51843 -3.11934 -3.37056 0.300953 1.16803e-007 7.47049 6.44171e-007 0.907294 17.5249 -0.512481 6.64893 27.3161 3.27471 -2.94784 5.93879 -4.20517 10.8584 2.41798 -0.945791 27.5924 -64.9714 -28.5754 3.77631 -24.5904 -1.70468 7.39174 -6.47192 -29.1504 1.01026 -21.1231 1.74131 20.535 -3.2649 2.59483 -6.11406 27.2248 4.23427 -1.96452 7.32629 3.42623 -10.4566 2.3285 -0.910794 -42.284 -60.42 6.23255 -3.86856 -25.191 -1.74633 0.72132 -22.1926 69.6765 -1.04759 -20.6242 1.75213 -6.61023 5.47043 -0.687536 9 -3.38008e-006 -5.22994e-009 9.73315 -11.1511 10.6691 -0.575 -51.431 3.90177 -1.88706 45.1371 -26.621 2.13082e-007 -43.5882 -3.90177 19.4696 -15.1981 0.599148 -9 6.86154e-007 -3.19539e-009 -16.3533 -11.114 -18.2492 0.575 -51.4311 3.90177 -9.02995 41.6244 16.9689 -7.46079e-007 -43.5882 -3.90177 -9.59082 -14.6403 -0.161133 
46.318 91.8067 -14.4379 0.0674351 -8.5776 0.102819 1.23234e-007 14.8421 1.27321e-009 -0.0146954 4.76632 -1.88241 0.51659 29.8236 6.51843 -3.10745 -3.30904 0.329067 1.16803e-007 7.47049 6.44171e-007 0.718157 17.5164 -0.422596 6.64893 27.3161 3.27471 -2.94784 5.93879 -4.20517 10.8584 2.41798 -0.945791 27.7493 -64.9917 -28.4209 3.77631 -24.5904 -1.70468 7.44748 -6.4397 -29.2494 1.01026 -21.1231 1.74131 20.5629 -3.15757 2.5869 -6.11406 27.2248 4.23427 -1.96452 7.32629 3.42623 -10.4566 2.3285 -0.910794 -42.1672 -60.4629 6.38294 -3.86856 -25.191 -1.74633 0.67407 -22.195 69.5549 -1.04759 -20.6242 1.75213 -6.82448 5.59173 -0.704367 9 -3.38008e-006 -5.22994e-009 9.70183 -11.207 10.6602 -0.575 -51.431 3.90177 -1.89991 45.1664 -26.5859 2.13082e-007 -43.5882 -3.90177 19.4541 -15.18 0.595483 -9 6.86154e-007 -3.19539e-009 -16.3887 -11.1841 -18.2596 0.575 -51.4311 3.90177 -9.05521 41.6686 16.9581 -7.46079e-007 -43.5882 -3.90177 -9.58419 -14.6672 -0.162783 
46.3189 91.8195 -14.4051 0.0837194 -8.60177 0.0670284 1.23234e-007 14.8421 1.27321e-009 -0.0680792 4.70705 -1.85511 0.51659 29.8236 6.51843 -3.03144 -3.05256 0.374609 1.16803e-007 7.47049 6.44171e-007 0.590249 17.3501 -0.318092 6.64893 27.3161 3.27471 -2.94784 5.93879 -4.20517 10.8584 2.41798 -0.945791 27.8984 -64.962 -28.1999 3.77631 -24.5904 -1.70468 7.38989 -6.43209 -29.1808 1.01026 -21.1231 1.74131 20.5927 -3.42683 2.62229 -6.11406 27.2248 4.23427 -1.96452 7.32629 3.42623 -10.4566 2.3285 -0.910794 -41.8132 -60.4629 6.80815 -3.86856 -25.191 -1.74633 0.51982 -22.0224 69.4265 -1.04759 -20.6242 1.75213 -6.76669 5.51532 -0.699538 9 -3.38008e-006 -5.22995e-009 9.68626 -11.1291 10.6668 -0.575 -51.431 3.90177 -1.91355 45.1257 -26.5803 2.13082e-007 -43.5882 -3.90177 19.5017 -15.2464 0.608593 -9 6.86154e-007 -3.19539e-009 -16.3987 -11.162 -18.2526 0.575 -51.4311 3.90177 -9.07571 41.6611 16.9612 -7.46079e-007 -43.5882 -3.90177 -9.55292 -14.5382 -0.152388 
46.3343 91.8257 -14.4093 0.162107 -8.53853 0.0449345 1.23234e-007 14.8421 1.27321e-009 -0.126318 4.57897 -1.83255 0.51659 29.8236 6.51843 -3.05818 -2.85784 0.4053 1.16803e-007 7.47049 6.44171e-007 0.588211 17.3159 -0.298812 6.64893 27.3161 3.27471 -2.94784 5.93879 -4.20517 10.8584 2.41798 -0.945791 27.8196 -64.9727 -28.2516 3.77631 -24.5904 -1.70468 7.42417 -6.21362 -29.2116 1.01026 -21.1231 1.74131 20.8532 -3.36818 2.65617 -6.11406 27.2248 4.23427 -1.96452 7.32629 3.42623 -10.4566 2.3285 -0.910794 -41.5457 -60.5062 7.1451 -3.86856 -25.191 -1.74633 0.38202 -21.9053 69.3935 -1.04759 -20.6242 1.75213 -6.51402 5.44057 -0.680072 9 -3.38008e-006 -5.22995e-009 9.60517 -11.1654 10.6642 -0.575 -51.431 3.90177 -1.95364 45.0787 -26.3978 2.13082e-007 -43.5882 -3.90177 19.5426 -15.327 0.623988 -9 6.86154e-007 -3.19539e-009 -16.4882 -11.245 -18.2776 0.575 -51.4311 3.90177 -9.0992 41.7055 17.0524 -7.46079e-007 -43.5882 -3.90177 -9.60506 -14.6619 -0.163238 
46.3543 91.8181 -14.3905 0.200617 -8.53359 0.0121182 1.23234e-007 14.8421 1.27321e-009 -0.135087 4.4609 -1.82304 0.51659 29.8236 6.51843 -3.18378 -2.55764 0.446826 1.16803e-007 7.47049 6.44171e-007 0.789423 17.2087 -0.365211 6.64893 27.3161 3.27471 -2.94784 5.93879 -4.20517 10.8584 2.41798 -0.945791 27.6396 -64.9597 -28.3657 3.77631 -24.5904 -1.70468 7.43204 -6.02252 -29.4912 1.01026 -21.1231 1.74131 21.0908 -2.94809 2.64334 -6.11406 27.2248 4.23427 -1.96452 7.32629 3.42623 -10.4566 2.3285 -0.910794 -41.1622 -60.624 7.67816 -3.86856 -25.191 -1.74633 0.144884 -21.5216 69.1231 -1.04759 -20.6242 1.75213 -6.68622 5.27276 -0.691555 9 -3.38008e-006 -5.22995e-009 9.55896 -11.1516 10.663 -0.575 -51.431 3.90177 -1.98229 45.0791 -26.3617 2.13082e-007 -43.5882 -3.90177 19.531 -15.3305 0.624163 -9 6.86154e-007 -3.19539e-009 -16.5414 -11.2456 -18.2865 0.575 -51.4311 3.90177 -9.1167 41.6848 17.0893 -7.46079e-007 -43.5882 -3.90177 -9.61225 -14.6798 -0.164804 
46.3592 91.8177 -14.4033 0.105941 -8.3949 -0.00683393 1.23234e-007 14.8421 1.2732e-009 0.0185208 4.26249 -1.78201 0.51659 29.8236 6.51843 -3.17775 -2.49308 0.410712 1.16803e-007 7.47049 6.44171e-007 0.623915 17.2677 -0.345647 6.64893 27.3161 3.27471 -2.94784 5.93879 -4.20517 10.8584 2.41798 -0.945791 27.428 -64.8716 -28.5512 3.77631 -24.5904 -1.70468 7.49338 -6.18827 -29.2385 1.01026 -21.1231 1.74131 20.7352 -2.99822 2.59502 -6.11406 27.2248 4.23427 -1.96452 7.32629 3.42623 -10.4566 2.3285 -0.910794 -41.0957 -60.5811 7.81112 -3.86856 -25.191 -1.74633 0.0939296 -21.4551 69.0534 -1.04759 -20.6242 1.75213 -6.72155 5.41534 -0.695391 9 -3.38008e-006 -5.22995e-009 9.65473 -11.3123 10.7033 -0.575 -51.431 3.90177 -1.97792 45.1282 -26.4497 2.13082e-007 -43.5882 -3.90177 19.5305 -15.3036 0.61949 -9 6.86154e-007 -3.19539e-009 -16.4623 -11.3943 -18.2866 0.575 -51.4311 3.90177 -9.06663 41.682 17.0242 -7.46079e-007 -43.5882 -3.90177 -9.58079 -14.5643 -0.155325 
46.3496 91.7988 -14.4322 0.0631731 -8.20427 -0.0862443 1.23234e-007 14.8421 1.2732e-009 0.0872207 4.02211 -1.6658 0.51659 29.8236 6.51843 -3.20482 -2.389 0.42621 1.16803e-007 7.47049 6.44171e-007 0.637364 17.2558 -0.344935 6.64893 27.3161 3.27471 -2.94784 5.93879 -4.20517 10.8584 2.41798 -0.945791 27.3447 -64.8385 -28.6556 3.77631 -24.5904 -1.70468 7.45794 -6.24386 -29.148 1.01026 -21.1231 1.74131 20.611 -3.06488 2.5837 -6.11406 27.2248 4.23427 -1.96452 7.32629 3.42623 -10.4566 2.3285 -0.910794 -41.2007 -60.5277 7.79505 -3.86856 -25.191 -1.74633 0.178988 -21.4737 69.0956 -1.04759 -20.6242 1.75213 -6.70946 5.30546 -0.693592 9 -3.38008e-006 -5.22995e-009 9.74956 -11.5274 10.8024 -0.575 -51.431 3.90177 -2.02327 45.1779 -26.3822 2.13082e-007 -43.5882 -3.90177 19.4806 -15.257 0.609656 -9 6.86154e-007 -3.19539e-009 -16.3941 -11.6461 -18.2299 0.575 -51.4311 3.90177 -9.0998 41.7173 16.9854 -7.46079e-007 -43.5882 -3.90177 -9.57728 -14.5575 -0.154707 
46.3354 91.7775 -14.4146 0.00483428 -8.18062 -0.154657 1.23234e-007 14.8421 1.2732e-009 0.183006 3.94711 -1.56913 0.51659 29.8236 6.51843 -3.17756 -2.33103 0.408186 1.16803e-007 7.47049 6.44171e-007 0.46379 17.2196 -0.298657 6.64893 27.3161 3.27471 -2.94784 5.93879 -4.20517 10.8584 2.41798 -0.945791 27.4721 -64.8167 -28.4941 3.77631 -24.5904 -1.70468 7.38272 -6.3757 -29.2715 1.01026 -21.1231 1.74131 20.4217 -3.15915 2.56535 -6.11406 27.2248 4.23427 -1.96452 7.32629 3.42623 -10.4566 2.3285 -0.910794 -41.3771 -60.4639 7.53694 -3.86856 -25.191 -1.74633 0.366175 -21.6543 69.2701 -1.04759 -20.6242 1.75213 -6.684 5.37679 -0.692253 9 -3.38008e-006 -5.22995e-009 9.85298 -11.5437 10.8912 -0.575 -51.431 3.90177 -2.07225 45.2442 -26.4016 2.13082e-007 -43.5882 -3.90177 19.5412 -15.3218 0.623035 -9 6.86154e-007 -3.19539e-009 -16.2992 -11.7027 -18.1345 0.575 -51.4311 3.90177 -9.14629 41.7568 17.0161 -7.46079e-007 -43.5882 -3.90177 -9.57791 -14.5937 -0.157307 
46.3566 91.7624 -14.4038 0.0484907 -8.19588 -0.165699 1.23234e-007 14.8421 1.27319e-009 0.135812 3.96726 -1.47812 0.51659 29.8236 6.51843 -3.09996 -2.39498 0.38461 1.16803e-007 7.47049 6.44171e-007 0.362412 17.3034 -0.26415 6.64893 27.3161 3.27471 -2.94784 5.93879 -4.20517 10.8584 2.41798 -0.945791 27.5113 -64.8676 -28.436 3.77631 -24.5904 -1.70468 7.33784 -6.55393 -29.4064 1.01026 -21.1231 1.74131 20.2898 -3.02538 2.5301 -6.11406 27.2248 4.23427 -1.96452 7.32629 3.42623 -10.4566 2.3285 -0.910794 -41.6308 -60.3555 7.3358 -3.86856 -25.191 -1.74633 0.472997 -21.7947 69.2611 -1.04759 -20.6242 1.75213 -6.62385 5.21002 -0.686243 9 -3.38008e-006 -5.22995e-009 9.8038 -11.5238 10.8767 -0.575 -51.431 3.90177 -2.08064 45.2655 -26.2998 2.13082e-007 -43.5882 -3.90177 19.6146 -15.4488 0.647741 -9 6.86154e-007 -3.19539e-009 -16.3371 -11.7071 -18.1212 0.575 -51.4311 3.90177 -9.2035 41.7892 17.0031 -7.46079e-007 -43.5882 -3.90177 -9.5763 -14.642 -0.160674 
